<svg width="1200" height="630" viewBox="0 0 1200 630" fill="none" xmlns="http://www.w3.org/2000/svg">
  <rect width="1200" height="630" fill="#09090B"/>
  <circle cx="940" cy="120" r="210" fill="url(#paint0_radial)"/>
  <circle cx="210" cy="580" r="240" fill="url(#paint1_radial)"/>
  <rect x="70" y="70" width="1060" height="490" rx="36" fill="#111113" stroke="rgba(255,255,255,0.08)"/>
  <rect x="122" y="142" width="168" height="36" rx="18" fill="rgba(96,165,250,0.12)" stroke="rgba(96,165,250,0.28)"/>
  <rect x="146" y="154" width="120" height="12" rx="6" fill="#60A5FA"/>
  <rect x="122" y="226" width="620" height="72" rx="18" fill="#FAFAFA"/>
  <rect x="122" y="324" width="520" height="22" rx="11" fill="#A1A1AA"/>
  <rect x="122" y="364" width="434" height="22" rx="11" fill="#27272A"/>
  <rect x="122" y="456" width="260" height="18" rx="9" fill="#A1A1AA"/>
  <rect x="806" y="170" width="250" height="250" rx="30" fill="#121417" stroke="rgba(255,255,255,0.06)"/>
  <path d="M852 326H902L950 276L1002 336L1040 308" stroke="#60A5FA" stroke-width="18" stroke-linecap="round" stroke-linejoin="round"/>
  <defs>
    <radialGradient id="paint0_radial" cx="0" cy="0" r="1" gradientUnits="userSpaceOnUse" gradientTransform="translate(940 120) rotate(90) scale(210)">
      <stop stop-color="#60A5FA" stop-opacity="0.22"/>
      <stop offset="1" stop-color="#60A5FA" stop-opacity="0"/>
    </radialGradient>
    <radialGradient id="paint1_radial" cx="0" cy="0" r="1" gradientUnits="userSpaceOnUse" gradientTransform="translate(210 580) rotate(90) scale(240)">
      <stop stop-color="#60A5FA" stop-opacity="0.18"/>
      <stop offset="1" stop-color="#60A5FA" stop-opacity="0"/>
    </radialGradient>
  </defs>
</svg>

