<svg width="1200" height="840" viewBox="0 0 1200 840" fill="none" xmlns="http://www.w3.org/2000/svg">
  <rect width="1200" height="840" rx="48" fill="#09090B"/>
  <rect x="56" y="56" width="1088" height="728" rx="36" fill="#111113" stroke="rgba(255,255,255,0.08)"/>
  <circle cx="910" cy="180" r="170" fill="url(#paint0_radial)" fill-opacity="0.85"/>
  <rect x="104" y="120" width="420" height="80" rx="24" fill="#18181B"/>
  <rect x="104" y="232" width="992" height="220" rx="28" fill="#121417" stroke="rgba(255,255,255,0.06)"/>
  <rect x="104" y="492" width="306" height="212" rx="28" fill="#121417" stroke="rgba(255,255,255,0.06)"/>
  <rect x="446" y="492" width="306" height="212" rx="28" fill="#121417" stroke="rgba(255,255,255,0.06)"/>
  <rect x="788" y="492" width="308" height="212" rx="28" fill="#121417" stroke="rgba(255,255,255,0.06)"/>
  <rect x="144" y="150" width="214" height="22" rx="11" fill="#FAFAFA"/>
  <rect x="144" y="270" width="264" height="18" rx="9" fill="#A1A1AA"/>
  <rect x="144" y="312" width="700" height="18" rx="9" fill="#27272A"/>
  <rect x="144" y="346" width="654" height="18" rx="9" fill="#27272A"/>
  <rect x="144" y="380" width="582" height="18" rx="9" fill="#27272A"/>
  <rect x="864" y="276" width="184" height="132" rx="24" fill="url(#paint1_linear)"/>
  <rect x="140" y="536" width="138" height="14" rx="7" fill="#A1A1AA"/>
  <rect x="140" y="574" width="116" height="58" rx="20" fill="#60A5FA" fill-opacity="0.16"/>
  <rect x="482" y="536" width="112" height="14" rx="7" fill="#A1A1AA"/>
  <path d="M482 648C517.346 598 554.025 573 592 573C629.975 573 666.654 598 702 648" stroke="#60A5FA" stroke-width="18" stroke-linecap="round"/>
  <rect x="826" y="536" width="136" height="14" rx="7" fill="#A1A1AA"/>
  <rect x="826" y="578" width="216" height="18" rx="9" fill="#27272A"/>
  <rect x="826" y="612" width="190" height="18" rx="9" fill="#27272A"/>
  <defs>
    <radialGradient id="paint0_radial" cx="0" cy="0" r="1" gradientUnits="userSpaceOnUse" gradientTransform="translate(910 180) rotate(90) scale(170)">
      <stop stop-color="#60A5FA"/>
      <stop offset="1" stop-color="#60A5FA" stop-opacity="0"/>
    </radialGradient>
    <linearGradient id="paint1_linear" x1="864" y1="276" x2="1048" y2="408" gradientUnits="userSpaceOnUse">
      <stop stop-color="#60A5FA" stop-opacity="0.9"/>
      <stop offset="1" stop-color="#2563EB" stop-opacity="0.22"/>
    </linearGradient>
  </defs>
</svg>

