<svg width="1200" height="840" viewBox="0 0 1200 840" fill="none" xmlns="http://www.w3.org/2000/svg">
  <rect width="1200" height="840" rx="48" fill="#09090B"/>
  <rect x="56" y="56" width="1088" height="728" rx="36" fill="#111113" stroke="rgba(255,255,255,0.08)"/>
  <circle cx="1016" cy="678" r="178" fill="url(#paint0_radial)"/>
  <rect x="104" y="116" width="992" height="608" rx="32" fill="#121417" stroke="rgba(255,255,255,0.06)"/>
  <rect x="148" y="162" width="290" height="512" rx="24" fill="#18181B"/>
  <rect x="478" y="162" width="574" height="154" rx="24" fill="#18181B"/>
  <rect x="478" y="346" width="272" height="328" rx="24" fill="#18181B"/>
  <rect x="780" y="346" width="272" height="328" rx="24" fill="#18181B"/>
  <rect x="184" y="206" width="150" height="18" rx="9" fill="#FAFAFA"/>
  <rect x="184" y="252" width="194" height="16" rx="8" fill="#A1A1AA"/>
  <rect x="184" y="304" width="214" height="182" rx="20" fill="url(#paint1_linear)"/>
  <rect x="184" y="518" width="164" height="14" rx="7" fill="#A1A1AA"/>
  <rect x="184" y="554" width="196" height="18" rx="9" fill="#27272A"/>
  <rect x="514" y="204" width="152" height="16" rx="8" fill="#A1A1AA"/>
  <rect x="514" y="246" width="394" height="18" rx="9" fill="#27272A"/>
  <rect x="514" y="280" width="316" height="18" rx="9" fill="#27272A"/>
  <rect x="514" y="390" width="148" height="14" rx="7" fill="#A1A1AA"/>
  <rect x="514" y="436" width="200" height="190" rx="22" fill="#141922" stroke="rgba(96,165,250,0.18)"/>
  <rect x="816" y="390" width="146" height="14" rx="7" fill="#A1A1AA"/>
  <path d="M864 500C900 468 926 452 942 452C962 452 990 472 1028 512" stroke="#60A5FA" stroke-width="16" stroke-linecap="round"/>
  <path d="M846 576C894 526 944 500 996 500C1015 500 1032 503 1048 510" stroke="#60A5FA" stroke-width="16" stroke-linecap="round" stroke-opacity="0.48"/>
  <defs>
    <radialGradient id="paint0_radial" cx="0" cy="0" r="1" gradientUnits="userSpaceOnUse" gradientTransform="translate(1016 678) rotate(90) scale(178)">
      <stop stop-color="#60A5FA" stop-opacity="0.2"/>
      <stop offset="1" stop-color="#60A5FA" stop-opacity="0"/>
    </radialGradient>
    <linearGradient id="paint1_linear" x1="184" y1="304" x2="398" y2="486" gradientUnits="userSpaceOnUse">
      <stop stop-color="#60A5FA" stop-opacity="0.92"/>
      <stop offset="1" stop-color="#2563EB" stop-opacity="0.22"/>
    </linearGradient>
  </defs>
</svg>

